<svg width="19" height="20" viewBox="0 0 19 20" fill="none" xmlns="http://www.w3.org/2000/svg">
<path d="M13.0195 6.08984C11.9453 5.01562 10.5703 4.5 9.15234 4.5V10L5.28516 13.8672C7.39062 16.0156 10.9141 16.0156 13.0625 13.8672C15.2109 11.7188 15.2109 8.23828 13.0195 6.08984ZM9.15234 0.804688C4.08203 0.804688 0 4.92969 0 10C0 15.0703 4.08203 19.1523 9.15234 19.1523C14.2227 19.1523 18.3047 15.0703 18.3047 10C18.3047 4.92969 14.2227 0.804688 9.15234 0.804688ZM9.15234 17.3047C5.11328 17.3047 1.80469 14.0391 1.80469 10C1.80469 5.91797 5.11328 2.65234 9.15234 2.65234C13.1914 2.65234 16.5 5.91797 16.5 10C16.5 14.0391 13.1914 17.3047 9.15234 17.3047Z" fill="#1B62C7"/>
</svg>
