<svg width="18" height="22" viewBox="0 0 18 22" fill="none" xmlns="http://www.w3.org/2000/svg">
<path d="M11.9023 6.40234V18.3047L8.03516 16.6289L7.30469 16.3281L6.57422 16.6289L2.75 18.3047V6.40234H11.9023ZM15.5547 0.902344H6.40234C5.37109 0.902344 4.55469 1.76172 4.55469 2.75H13.75C14.7383 2.75 15.5547 3.56641 15.5547 4.59766V16.5L17.4023 17.4023V2.75C17.4023 1.76172 16.5859 0.902344 15.5547 0.902344ZM11.9023 4.59766H2.75C1.71875 4.59766 0.902344 5.41406 0.902344 6.40234V21.0977L7.30469 18.3477L13.75 21.0977V6.40234C13.75 5.41406 12.8906 4.59766 11.9023 4.59766Z" fill="white"/>
</svg>
