<svg width="19" height="14" viewBox="0 0 19 14" fill="none" xmlns="http://www.w3.org/2000/svg">
<path d="M6.40234 8.58984C4.25391 8.58984 0 9.66406 0 11.8125V13.4023H12.8047V11.8125C12.8047 9.66406 8.55078 8.58984 6.40234 8.58984ZM2.14844 11.5977C2.92188 11.0391 4.76953 10.4375 6.40234 10.4375C8.03516 10.4375 9.88281 11.0391 10.6562 11.5977H2.14844ZM6.40234 7C8.16406 7 9.625 5.58203 9.625 3.77734C9.625 2.01562 8.16406 0.597656 6.40234 0.597656C4.64062 0.597656 3.17969 2.01562 3.17969 3.77734C3.17969 5.58203 4.64062 7 6.40234 7ZM6.40234 2.40234C7.17578 2.40234 7.77734 3.04688 7.77734 3.77734C7.77734 4.55078 7.17578 5.15234 6.40234 5.15234C5.62891 5.15234 5.02734 4.55078 5.02734 3.77734C5.02734 3.04688 5.62891 2.40234 6.40234 2.40234ZM12.8477 8.67578C13.9219 9.44922 14.6523 10.4375 14.6523 11.8125V13.4023H18.3047V11.8125C18.3047 9.96484 15.125 8.89062 12.8477 8.67578ZM11.9023 7C13.6641 7 15.125 5.58203 15.125 3.77734C15.125 2.01562 13.6641 0.597656 11.9023 0.597656C11.3867 0.597656 10.957 0.683594 10.5273 0.898438C11.0859 1.71484 11.4297 2.70312 11.4297 3.77734C11.4297 4.85156 11.0859 5.88281 10.5273 6.69922C10.957 6.87109 11.3867 7 11.9023 7Z" fill="white"/>
</svg>
