<svg width="18" height="18" viewBox="0 0 18 18" fill="none" xmlns="http://www.w3.org/2000/svg">
<path d="M15.5547 0.75H2.75C1.71875 0.75 0.902344 1.56641 0.902344 2.59766V15.4023C0.902344 16.4336 1.71875 17.25 2.75 17.25H15.5547C16.5859 17.25 17.4023 16.4336 17.4023 15.4023V2.59766C17.4023 1.56641 16.5859 0.75 15.5547 0.75ZM15.5547 15.4023H2.75V12.6523H6.01562C6.61719 13.7695 7.82031 14.5 9.15234 14.5C10.5273 14.5 11.6875 13.7695 12.332 12.6523H15.5547V15.4023ZM15.5547 10.8477H11C11 11.8359 10.1836 12.6523 9.15234 12.6523C8.16406 12.6523 7.34766 11.8359 7.34766 10.8477H2.75V2.59766H15.5547V10.8477Z" fill="white"/>
</svg>
